<mxfile host="app.diagrams.net" modified="2022-05-11T10:44:34.996Z" agent="5.0 (Macintosh; Intel Mac OS X 10_15_7) AppleWebKit/537.36 (KHTML, like Gecko) Chrome/101.0.4951.41 Safari/537.36" etag="BSRlMSiuwOIM11y3EIFP" version="18.0.2" type="github">
  <diagram id="K4oDl0fBk20oNW95bR5N" name="Page-1">
    <mxGraphModel dx="1298" dy="866" grid="1" gridSize="10" guides="1" tooltips="1" connect="1" arrows="1" fold="1" page="1" pageScale="1" pageWidth="827" pageHeight="1169" math="0" shadow="0">
      <root>
        <mxCell id="0" />
        <mxCell id="1" parent="0" />
        <mxCell id="Aoj3QZDFBntv7U1dnWDF-7" style="edgeStyle=orthogonalEdgeStyle;rounded=0;orthogonalLoop=1;jettySize=auto;html=1;entryX=0.363;entryY=-0.012;entryDx=0;entryDy=0;entryPerimeter=0;" parent="1" source="FMUZzD7xtdR_AG3TQwpP-1" target="FMUZzD7xtdR_AG3TQwpP-2" edge="1">
          <mxGeometry relative="1" as="geometry" />
        </mxCell>
        <mxCell id="NJjtzE6ZhrTwlzoMyvYR-2" style="edgeStyle=orthogonalEdgeStyle;rounded=0;orthogonalLoop=1;jettySize=auto;html=1;exitX=1;exitY=0.5;exitDx=0;exitDy=0;entryX=0.5;entryY=0;entryDx=0;entryDy=0;" edge="1" parent="1" source="FMUZzD7xtdR_AG3TQwpP-1" target="NJjtzE6ZhrTwlzoMyvYR-1">
          <mxGeometry relative="1" as="geometry" />
        </mxCell>
        <mxCell id="FMUZzD7xtdR_AG3TQwpP-1" value="TEST" style="ellipse;whiteSpace=wrap;html=1;" parent="1" vertex="1">
          <mxGeometry x="350" y="400" width="120" height="80" as="geometry" />
        </mxCell>
        <mxCell id="FMUZzD7xtdR_AG3TQwpP-2" value="Successful" style="whiteSpace=wrap;html=1;aspect=fixed;" parent="1" vertex="1">
          <mxGeometry x="230" y="600" width="80" height="80" as="geometry" />
        </mxCell>
        <mxCell id="NJjtzE6ZhrTwlzoMyvYR-1" value="Unsuccessful&amp;nbsp;" style="whiteSpace=wrap;html=1;aspect=fixed;" vertex="1" parent="1">
          <mxGeometry x="519" y="600" width="80" height="80" as="geometry" />
        </mxCell>
        <mxCell id="NJjtzE6ZhrTwlzoMyvYR-4" style="edgeStyle=orthogonalEdgeStyle;rounded=0;orthogonalLoop=1;jettySize=auto;html=1;" edge="1" parent="1" source="NJjtzE6ZhrTwlzoMyvYR-3" target="FMUZzD7xtdR_AG3TQwpP-1">
          <mxGeometry relative="1" as="geometry" />
        </mxCell>
        <mxCell id="NJjtzE6ZhrTwlzoMyvYR-3" value="Main" style="ellipse;whiteSpace=wrap;html=1;" vertex="1" parent="1">
          <mxGeometry x="350" y="230" width="120" height="80" as="geometry" />
        </mxCell>
      </root>
    </mxGraphModel>
  </diagram>
</mxfile>
